<?xml version="1.0" encoding="iso-8859-1"?>
<!-- Generator: Adobe Illustrator 19.0.0, SVG Export Plug-In . SVG Version: 6.00 Build 0)  -->
<svg version="1.1" id="Capa_1" xmlns="http://www.w3.org/2000/svg" xmlns:xlink="http://www.w3.org/1999/xlink" x="0px" y="0px"
	 viewBox="0 0 480 480" style="enable-background:new 0 0 480 480;" xml:space="preserve" fill="#69c893">
<g>
	<g>
		<g>
			<path d="M224.797,240c0-4.418-3.582-8-8-8h-104c-4.418,0-8,3.582-8,8s3.582,8,8,8h104C221.215,248,224.797,244.418,224.797,240z"
				/>
			<path d="M112.797,120h176c4.418,0,8-3.582,8-8s-3.582-8-8-8h-176c-4.418,0-8,3.582-8,8S108.378,120,112.797,120z"/>
			<path d="M395.515,168.687c-0.008-0.008-0.015-0.015-0.023-0.023l-11.36-11.36c-15.15-15.231-39.663-15.66-55.336-0.968V8
				c0-4.418-3.582-8-8-8h-240c-4.418,0-8,3.582-8,8v464c0,4.418,3.582,8,8,8h240c4.418,0,8-3.582,8-8V291.872l66.696-66.696
				C411.098,209.583,411.108,184.292,395.515,168.687z M312.797,464h-224V16h224v156.128L146.581,338.344
				c-0.131,0.154-0.252,0.317-0.36,0.488c-0.246,0.284-0.471,0.586-0.672,0.904c-0.244,0.38-0.453,0.782-0.624,1.2
				c-0.08,0.184-0.208,0.328-0.28,0.528l-28.32,84.888c-1.396,4.192,0.87,8.722,5.062,10.118c0.816,0.272,1.67,0.41,2.53,0.41
				c0.859,0.003,1.713-0.135,2.528-0.408l84.88-28.32c0.096,0,0.168-0.104,0.264-0.144c0.165-0.058,0.325-0.127,0.48-0.208
				c0.35-0.16,0.687-0.347,1.008-0.56c0.308-0.198,0.602-0.417,0.88-0.656c0.172-0.114,0.337-0.236,0.496-0.368l98.344-98.344V464z
				 M157.989,352h42.808v42.8l-64.232,21.424L157.989,352z M216.797,381.248v-33.936l71.2-71.2
				c3.124-3.126,3.122-8.192-0.004-11.316c-3.126-3.124-8.192-3.122-11.316,0.004l-71.2,71.2h-33.928l116.448-116.448l45.248,45.248
				L216.797,381.248z M344.557,253.488l-45.248-45.248l11.328-11.328l45.248,45.248L344.557,253.488z M384.195,213.849
				c-0.005,0.005-0.01,0.01-0.015,0.015l-16.984,16.976l-45.24-45.24l16.976-16.984c9.484-9.049,24.404-9.049,33.888,0l11.36,11.36
				C393.539,189.326,393.545,204.491,384.195,213.849z"/>
		</g>
	</g>
</g>
<g>
</g>
<g>
</g>
<g>
</g>
<g>
</g>
<g>
</g>
<g>
</g>
<g>
</g>
<g>
</g>
<g>
</g>
<g>
</g>
<g>
</g>
<g>
</g>
<g>
</g>
<g>
</g>
<g>
</g>
</svg>
